<svg xmlns="http://www.w3.org/2000/svg" width="19" height="25"><style/><g id="footer"><path id="telephone" d="M2.62 1.63c-1.02.76-3.9 4.88 1.49 14.21 5.67 9.83 11.07 9.42 12.16 8.75l-3.83-6.44c-.9.53-1.67-.34-3.07-2.24-.03-.02-2.75-4.58-2.76-4.64-.56-1.23-1.01-2.48-.07-3.04l-3.92-6.6zM18.6 23.24c.42-.25.52-.77.29-1.15 0 0-2.99-5.02-2.99-5.03a.838.838 0 00-1.14-.29l-1.83 1.08 3.84 6.46 1.83-1.07zM8.87 6.86c.42-.25.52-.76.3-1.14L6.1.55A.843.843 0 004.95.26L3.12 1.34l3.92 6.6 1.83-1.07v-.01z" fill="#000"/></g></svg>