<svg xmlns="http://www.w3.org/2000/svg" width="212" height="110"><defs><clipPath id="a"><path transform="translate(577 44)" fill="none" d="M0 0h212v89H0z"/></clipPath></defs><g data-name="logo" clip-path="url(#a)" transform="translate(-577 -33.75)"><g data-name="logo"><g data-name="Сгруппировать 6" fill="#1a1818"><path data-name="Контур 21" d="M657.538 90.078c-.147.061-.3.115-.441.183-1.4.662-2.773 1.4-4.21 1.967a49.763 49.763 0 00-6.988 3.482 8.6 8.6 0 01-2.267.666c-.485.128-.978.218-1.465.34s-.578.074-.969-.483a.634.634 0 01.043-.823q1.2-1.62 2.391-3.253a.919.919 0 00.2-.416c-.19.085-.391.157-.578.257q-2.979 1.581-5.954 3.175a.623.623 0 00-.223.146 1.8 1.8 0 01-1.233.651c-.889.207-1.778.418-2.659.647a.684.684 0 01-.74-.268c-.247-.279-.478-.6-.288-.989a12.962 12.962 0 01.855-1.54c.6-.884 1.24-1.736 1.86-2.607a2.958 2.958 0 00.192-.355l-.061-.063c-.093.041-.19.081-.283.129-2.4 1.2-4.805 2.4-7.2 3.613a4.151 4.151 0 00-.865.616 3.9 3.9 0 01-1.759.767c-.829.209-1.659.427-2.494.621a.656.656 0 01-.431-.085 2.434 2.434 0 01-.42-.377.606.606 0 01-.115-.788q.628-1.137 1.25-2.278a2.238 2.238 0 00.257-.68c-.117.048-.234.091-.344.148-1.8.98-3.624 1.918-5.389 2.959a12.759 12.759 0 01-4.171 1.644c-.441.081-.872.181-1.311.257-.348.059-1.034-.5-1.017-.841a.745.745 0 01.232-.381q3.068-3.234 6.138-6.463c.1-.1.186-.211.322-.37a1.8 1.8 0 00-.279-.017c-.876.115-1.748.226-2.624.348-.573.078-.709.266-.844.812a2.589 2.589 0 01-1.566 1.934q-.932.369-1.869.727c-.733.281-1.313-.022-1.331-.8a7.453 7.453 0 01.309-1.783c.138-.6.335-1.191.476-1.794a.581.581 0 01.491-.512c1.069-.178 2.135-.375 3.206-.5a2.843 2.843 0 011.173.163 4.28 4.28 0 001.891.083c1.625-.213 3.249-.451 4.872-.671a4.086 4.086 0 01.934-.067 1.281 1.281 0 01.655.255c.307.24.294.4.035.7l-2.2 2.511c-.076.087-.141.187-.264.357a2.3 2.3 0 00.3-.08 26.265 26.265 0 004.052-2.389 1.4 1.4 0 01.58-.227c1.026-.155 2.055-.29 3.081-.431a.8.8 0 01.906 1.121c-.361.8-.772 1.577-1.16 2.363l-.231.468c.167-.059.255-.085.337-.122 2.767-1.3 5.527-2.6 8.292-3.885a2.485 2.485 0 01.805-.2c.974-.1 1.954-.181 2.931-.253a.688.688 0 01.662 1.111c-.591.886-1.134 1.8-1.7 2.709a1.421 1.421 0 00-.221.508 3.115 3.115 0 00.381-.144c1.971-1.017 3.972-1.982 5.889-3.088a4.275 4.275 0 011.971-.564c.668-.046 1.333-.128 2-.157a1.326 1.326 0 01.634.148.492.492 0 01.2.775.844.844 0 00-.076.146 9.591 9.591 0 01-1.72 2.835 4.984 4.984 0 00-.342.545l.061.063c.238-.105.48-.2.72-.311q4.951-2.263 9.908-4.532a4.436 4.436 0 011.765-.453c.671-.015 1.339-.1 2.008-.107a1.6 1.6 0 01.749.207.454.454 0 01.162.688 19.4 19.4 0 01-2.217 3.2c-.841.915-1.614 1.893-2.425 2.838-.364.427-.746.841-1.112 1.27-.1.122-.184.268-.337.5.2-.054.3-.076.4-.107l6.752-2.346a.473.473 0 00.344-.388 13.507 13.507 0 013.63-6.183 23.507 23.507 0 012.828-2.539 14.3 14.3 0 014.712-2.383 10.6 10.6 0 013.377-.227c.643.031 1.294.028 1.936.1a4.381 4.381 0 013.338 1.845 3.913 3.913 0 01.578 3.391 14.809 14.809 0 01-.647 1.636.451.451 0 01-.271.2c-1.3.372-2.6.71-3.892 1.1-2.451.751-4.893 1.527-7.336 2.3-1.328.42-2.65.854-3.978 1.28-.515.165-.521.166-.511.692a3.669 3.669 0 00.976 2.383 6.838 6.838 0 003.643 1.892 7.271 7.271 0 004.043-.327 28.037 28.037 0 006.691-3.09 23.327 23.327 0 004.668-3.805c.03-.033.056-.068.087-.1a1.141 1.141 0 00.271-1.413 6.926 6.926 0 01-.065-4.669 14.161 14.161 0 012.551-4.721 40.408 40.408 0 017-7.021 41.585 41.585 0 015.35-3.584 37.284 37.284 0 015.834-2.583 34.286 34.286 0 015.553-1.479c1.313-.235 2.648-.372 3.978-.49a26.349 26.349 0 012.934-.1c.934.019 1.871.111 2.8.222 1.406.17 2.81.353 4.2.586a10.416 10.416 0 013.7 1.416 12.092 12.092 0 014.059 4.025 14.262 14.262 0 011.9 6.348 18.794 18.794 0 01.013 3.987c-.149 1.241-.245 2.493-.495 3.717a31.112 31.112 0 01-.941 3.214c-.149.472-.366.925-.584 1.457.244-.091.444-.153.638-.239.891-.4 1.791-.791 2.672-1.213.7-.338 1.389-.7 2.077-1.076a15.846 15.846 0 011.419-.8 3.9 3.9 0 011.266-.24c.813-.043 1.631-.03 2.444-.031.552 0 .761.277.539.791-.232.538-.5 1.063-.77 1.587a14.408 14.408 0 01-2.178 3.223 5.61 5.61 0 00-.385.558l.065.063c.087-.031.18-.055.262-.092 3.481-1.524 6.97-3.033 10.436-4.584a7.516 7.516 0 012.823-.592c.426-.02.848-.048 1.274-.055a1.292 1.292 0 01.489.078.538.538 0 01.279.9 26.548 26.548 0 01-3.154 3.916c-.629.66-1.207 1.365-1.821 2.038-.331.364-.694.7-1.043 1.05l.061.085a1.008 1.008 0 00.169-.024c.941-.316 1.876-.644 2.819-.952 1.279-.418 2.566-.827 3.851-1.226a.522.522 0 00.394-.394 10.912 10.912 0 012.326-4.077 22.309 22.309 0 014.827-4.231 16.782 16.782 0 015.1-2.3 11.935 11.935 0 013.511-.214c.645.031 1.3.026 1.938.1a3.879 3.879 0 013.152 1.908 3.52 3.52 0 01.342 1.775 5.575 5.575 0 01-.761 2.452 1.805 1.805 0 01-1.372 1.019c-2.088.521-4.16 1.1-6.217 1.729-2.581.78-5.142 1.627-7.714 2.439-.392.126-.79.233-1.188.338a.392.392 0 00-.333.388 3.326 3.326 0 00.9 2.626 6.653 6.653 0 003.68 1.886 7.262 7.262 0 003.913-.337 27.558 27.558 0 006.884-3.136c1.116-.7 2.148-1.513 3.223-2.271a2.908 2.908 0 01.567-.331c.673-.27 1.341-.547 2.029-.769a5.408 5.408 0 012.51-.092.308.308 0 01.206.542 6.307 6.307 0 01-1.039 1.069c-1.151.858-2.332 1.673-3.511 2.493a7.912 7.912 0 01-.813.436c-.852.455-1.687.947-2.557 1.365a21.658 21.658 0 01-5.768 1.967 19.171 19.171 0 01-4.037.222c-1.246-.061-2.5-.1-3.736-.25a9.235 9.235 0 01-4.084-1.366 4.74 4.74 0 01-2.023-2.687 15.569 15.569 0 01-.141-.494c-.331.1-.647.19-.965.277l-8.227 2.273c-.666.185-1.331.379-2 .536a2.775 2.775 0 01-.848.052c-.359-.03-.643-.775-.413-1.069.768-.965 1.534-1.936 2.324-2.883.913-1.091 1.856-2.158 2.786-3.238.1-.122.2-.253.3-.379l-.054-.074c-.219.092-.444.174-.655.281-1.873.945-3.814 1.723-5.754 2.522a37.167 37.167 0 00-4.32 2.182 10.079 10.079 0 01-3.321 1.259 13.943 13.943 0 00-1.562.357c-.491.141-.655-.222-.876-.5a.583.583 0 01.013-.791c.677-.895 1.358-1.788 2.025-2.694.53-.719 1.043-1.455 1.6-2.232a2.255 2.255 0 00-.271.109 40.179 40.179 0 01-5.3 2.221c-.3.1-.616.2-.909.329a1.082 1.082 0 00-.312.279q-.583.6-1.159 1.215c-.316.337-.625.686-.945 1.021-.37.392-.729.8-1.132 1.161a17.552 17.552 0 01-2.386 1.958c-.383.235-.7.56-1.071.821-.47.331-.958.642-1.443.954s-.952.631-1.451.91c-.623.344-1.266.651-1.9.973-.344.172-.679.357-1.03.51-.982.433-1.984.827-2.957 1.285a30.92 30.92 0 01-5.318 1.784 28.018 28.018 0 01-5.114.8 45.03 45.03 0 01-7.784-.146 20.945 20.945 0 01-5.7-1.113 10.784 10.784 0 01-4.642-3.484 12.113 12.113 0 01-1.661-2.644 10.6 10.6 0 01-.85-3.508.986.986 0 00-.007-.166c-.03-.135-.071-.27-.1-.4-.128.054-.262.1-.383.161-1 .549-1.98 1.152-3.011 1.638a33.523 33.523 0 01-3.282 1.315 15.672 15.672 0 01-5.672.769c-1.391-.05-2.788-.085-4.171-.24a8.926 8.926 0 01-4.539-1.622 4.873 4.873 0 01-1.86-2.842c-.017-.076-.045-.15-.067-.224a2.451 2.451 0 00-.071-.153c-.5.148-1 .288-1.491.442-1.276.4-2.548.812-3.825 1.2-1.3.4-2.609.762-3.907 1.167-.517.161-1.015.394-1.527.586-.166.065-.338.105-.508.163a.757.757 0 01-.926-.331c-.387-.507-.4-.573-.011-1.061q2.407-3.009 4.816-6.015c.084-.109.158-.224.238-.338zm51.711 5.9c1.278-.072 2.561-.116 3.838-.226a87.547 87.547 0 009.25-1.246c.973-.187 1.941-.4 2.908-.623.42-.1.828-.264 1.244-.381 1.428-.4 2.86-.78 4.286-1.185a.923.923 0 00.482-.32 20.789 20.789 0 003.009-5.865 25.521 25.521 0 001.019-5.949 14.963 14.963 0 00-.182-3.939c-.115-.56-.128-1.148-.277-1.7a12.086 12.086 0 00-.7-1.9 15.028 15.028 0 00-1.268-2.363 11.284 11.284 0 00-2.845-2.737 6.806 6.806 0 00-2.91-1.263 27.816 27.816 0 00-6.836-.02 39.982 39.982 0 00-4.257.76 27.306 27.306 0 00-2.96.906 18.755 18.755 0 00-3.215 1.3c-1.441.814-2.957 1.507-4.391 2.33a27.981 27.981 0 00-2.574 1.786c-.824.6-1.651 1.211-2.429 1.877a37.4 37.4 0 00-3.37 3.242 27.779 27.779 0 00-2.866 3.532 10.411 10.411 0 00-1.917 5.714 4.773 4.773 0 00.876 2.746 8.976 8.976 0 002.551 2.328 17.3 17.3 0 005.473 2.261 30.712 30.712 0 008.061.932zm19.425-.954l-.039-.055-2.561.433c-1.352.231-2.695.514-4.054.682-1.99.251-3.987.486-5.988.61-2.213.139-4.433.192-6.652.2-1.48 0-2.962-.139-4.441-.22a33.667 33.667 0 01-6.934-1.035 19.6 19.6 0 01-5.421-2.206c-.128-.081-.273-.142-.439-.229a2.057 2.057 0 00-.143.361 19.181 19.181 0 00-.285 2.071 8.169 8.169 0 001.159 4.71 16.543 16.543 0 001.514 2.108 9.27 9.27 0 003.812 2.74 14.932 14.932 0 006.044.915 32.862 32.862 0 0010.257-2.21 49.3 49.3 0 007.36-3.563 33.269 33.269 0 006.233-4.726c.199-.199.385-.395.579-.589zm-59.388-3.9c.024.022.052.043.08.065a4.9 4.9 0 00.219-.065c1.424-.475 2.851-.962 4.283-1.426 2.226-.721 4.456-1.426 6.681-2.147a.524.524 0 00.285-.207 3.768 3.768 0 00.338-4.024 1.46 1.46 0 00-1.244-.78 12.247 12.247 0 00-4.337 1.768 18.227 18.227 0 00-5.389 5.283c-.327.491-.607 1.014-.915 1.527zm96.509.209c.032.024.056.048.086.072l3.531-1.113c2.51-.782 5.015-1.583 7.541-2.324a1.694 1.694 0 001.19-.937c.019-.041.046-.074.067-.115a3.6 3.6 0 00.441-3.232 1.232 1.232 0 00-1.188-.8 14.447 14.447 0 00-4.619 1.7 19.362 19.362 0 00-6 5.213c-.373.496-.701 1.017-1.049 1.53zm-161.019-5.545c-.649.089-1.244.163-1.835.253a29.122 29.122 0 01-8.009.057 8 8 0 01-4.216-1.729 5.218 5.218 0 01-.729-.73 1.4 1.4 0 01-.006-2.019 7.292 7.292 0 011.618-1.376c2.016-1.187 4.067-2.313 6.114-3.447 4.1-2.273 8.253-4.478 12.165-7.073 1.465-.974 2.858-2.054 4.275-3.1a2.154 2.154 0 00.526-.551.746.746 0 01.573-.346c.878-.111 1.748-.226 2.624-.333a.626.626 0 01.777.579 1.743 1.743 0 01-.236 1.213c-1.021 1.91-2.029 3.828-3.072 5.723-1.848 3.345-3.446 6.814-5.1 10.253-.019.039-.03.083-.071.192.167-.05.286-.085.4-.124a55.923 55.923 0 007.353-3.2 38.773 38.773 0 005.984-3.715 36.063 36.063 0 002.808-2.359 13.156 13.156 0 002.683-3.426 5.272 5.272 0 00-2.049-7.084 18.981 18.981 0 00-4.623-2.237 54.288 54.288 0 00-9.91-1.9 44.978 44.978 0 00-8.29.126 52.885 52.885 0 00-6.419 1.139 45.027 45.027 0 00-8.474 2.866 23.734 23.734 0 00-5.863 3.693 14.6 14.6 0 00-2.239 2.592 3.372 3.372 0 00-.372 3.216 11.47 11.47 0 006.343 6.638 6.206 6.206 0 011.047.581.4.4 0 01-.058.743c-.714.333-1.452.625-2.192.9a.75.75 0 01-.549-.033 38.973 38.973 0 01-4.467-2.544 11.488 11.488 0 01-4.1-5.712 4.492 4.492 0 01.485-3.563 8.6 8.6 0 011.819-2.2 28.4 28.4 0 017.048-4.551 46.215 46.215 0 017.284-2.731 66.416 66.416 0 0110.317-2.25 62.47 62.47 0 017.178-.483 43.566 43.566 0 0115.139 2.289 22.373 22.373 0 014.3 2.062 7.181 7.181 0 013.323 4.033 4.133 4.133 0 01.076 2.419 14.237 14.237 0 01-2.042 4.048 3.738 3.738 0 01-.632.638c-.571.514-1.155 1.013-1.718 1.535a23.974 23.974 0 01-4.08 2.947c-.526.312-.991.734-1.529 1.023-1.625.876-3.277 1.709-4.915 2.568a40.92 40.92 0 01-7.124 2.585c-.746.231-1.49.466-2.241.679a.812.812 0 00-.55.472q-5.453 11.4-10.927 22.783a8.366 8.366 0 01-.792 1.307 2.351 2.351 0 01-.7.6c-.6.348-1.218.643-1.824.976a2.084 2.084 0 01-1.294.207 1.008 1.008 0 01-.662-1.265l11.518-23.535c.045-.085.075-.178.132-.326zm7.332-14.95l-.063-.043c-.082.048-.167.094-.247.146-.643.422-1.261.889-1.934 1.252a981.852 981.852 0 01-11.141 5.971 25.411 25.411 0 00-4.725 3.068 1.145 1.145 0 00-.523 1.18c.179.625.433 1.231 1.205 1.361.132.02.253.083.385.113 1.289.3 2.566.684 3.875.875a24.035 24.035 0 005.975-.139.713.713 0 00.634-.451 179.048 179.048 0 011.8-3.72q2.3-4.621 4.615-9.231c.059-.13.094-.258.145-.389zm19.981 7.8c-.682.081-1.374.131-2.051.261a3.192 3.192 0 00-2.287 1.546 27.425 27.425 0 00-2.323 4.6.441.441 0 00.469.6c1.14-.141 2.276-.309 3.418-.431.573-.059 1.006-.229 1.1-.864a.284.284 0 01.041-.091 25.138 25.138 0 001.817-4.747c.056-.181.086-.366.128-.549.022-.255-.077-.362-.311-.336z" fill-rule="evenodd"/><g data-name="Сгруппировать 5"><path data-name="Контур 22" d="M656.039 131.944a2.162 2.162 0 01-.026.351.724.724 0 01-.482.634 1.352 1.352 0 01-.452.07.957.957 0 01-.621-.179 1.2 1.2 0 01-.192-.209 1.972 1.972 0 01-.173-1.1v-1.337a1.856 1.856 0 01.216-1.032 1.006 1.006 0 01.807-.335.937.937 0 01.686.259c.156.163.214.37.214.821 0 .085 0 .178-.007.266h-.469c0-.146 0-.3-.007-.447a.427.427 0 00-.154-.39.422.422 0 00-.262-.081.438.438 0 00-.465.357 8.383 8.383 0 00-.058 1.339c0 .307.006.607.02.913a1.122 1.122 0 00.08.529.462.462 0 00.411.2.425.425 0 00.273-.087c.192-.144.184-.468.184-.675v-.3h.476c.005.142.005.287.001.433z"/><path data-name="Контур 23" d="M663.831 132.94l-.145-.784h-.954l-.138.784h-.526l.88-4.074h.511l.9 4.074zm-.634-3.317l-.374 2.1h.775z"/><path data-name="Контур 24" d="M671.284 129.323v3.617h-.51v-3.617h-.779v-.461h2.06v.457z"/><path data-name="Контур 25" d="M678.215 132.94v-4.078h1.806v.457h-1.291v1.211h1.127v.462h-1.127v1.489h1.335v.455z"/><path data-name="Контур 26" d="M687.95 132.94l-.7-1.788h-.426v1.788h-.506v-4.078h.894a1.175 1.175 0 01.766.19 1.163 1.163 0 01.32.895 3.077 3.077 0 01-.043.508.874.874 0 01-.167.427.585.585 0 01-.344.205l.735 1.847zm-.208-3.339c-.1-.294-.417-.272-.666-.272h-.249v1.424h.266a1.316 1.316 0 00.45-.044c.255-.1.247-.462.247-.675a1.307 1.307 0 00-.048-.433z"/><path data-name="Контур 27" d="M694.665 132.94v-4.078h.508v4.074z"/><path data-name="Контур 28" d="M702.795 132.94l-.8-3.532.071 3.532h-.508v-4.078h.7l.829 3.567-.071-3.567h.495v4.074z"/><path data-name="Контур 29" d="M711.475 132.94v-.278a1.751 1.751 0 01-.162.152.966.966 0 01-.584.19.777.777 0 01-.777-.56 2.831 2.831 0 01-.076-.876c-.006-.214-.006-.429-.006-.647q0-.433.017-.865a2.858 2.858 0 01.065-.634.9.9 0 01.961-.612 1.179 1.179 0 01.653.155.579.579 0 01.132.122.689.689 0 01.139.253 1.931 1.931 0 01.032.49v.288h-.482v-.407c-.006-.165-.028-.472-.457-.472a.559.559 0 00-.32.085.4.4 0 00-.1.092.374.374 0 00-.065.163 6.97 6.97 0 00-.063 1.154v.492c0 .229.011.455.02.684a1.149 1.149 0 00.058.44.429.429 0 00.415.242.553.553 0 00.37-.133.51.51 0 00.134-.179 1.955 1.955 0 00.058-.582v-.414h-.6v-.44h1.079v2.106z"/></g><path data-name="Контур 30" d="M670.963 48.137l-.8-3.532.071 3.532h-.5v-4.075h.7l.829 3.567-.071-3.567h.495v4.074zm8.219-1.649v1.649h-.53v-1.649l-.868-2.424h.539l.606 2.036.61-2.036h.539zm8.906.651a2.522 2.522 0 01-.022.353.74.74 0 01-.48.634 1.4 1.4 0 01-.454.068.96.96 0 01-.621-.178 1.012 1.012 0 01-.193-.209 2 2 0 01-.171-1.1v-1.339a1.825 1.825 0 01.216-1.032 1 1 0 01.805-.337.921.921 0 01.684.261c.156.161.216.37.216.819 0 .087 0 .179-.006.264h-.467v-.444a.421.421 0 00-.158-.392.411.411 0 00-.26-.081.438.438 0 00-.465.359 8.372 8.372 0 00-.058 1.339c0 .305.006.6.019.912a1.132 1.132 0 00.084.531.463.463 0 00.411.2.417.417 0 00.27-.085c.2-.146.188-.468.188-.675v-.3h.476c-.007.144-.007.288-.015.432zm7.812.884a1.139 1.139 0 01-.642.172.927.927 0 01-.924-.558 1.41 1.41 0 01-.06-.457v-.451h.482v.2a1.663 1.663 0 00.045.538.46.46 0 00.457.294.5.5 0 00.472-.266.519.519 0 00.05-.24.93.93 0 00-.385-.723l-.552-.566a1.27 1.27 0 01-.472-1.021 1.4 1.4 0 01.048-.386.826.826 0 01.906-.56.789.789 0 01.829.531 2.114 2.114 0 01.035.473v.259h-.456v-.335a.444.444 0 00-.219-.457.555.555 0 00-.216-.039.405.405 0 00-.307.109.411.411 0 00-.082.109.64.64 0 00-.041.27.731.731 0 00.035.239 1.527 1.527 0 00.37.488l.643.684c.048.05.087.1.13.155a1.115 1.115 0 01.225.727.864.864 0 01-.376.811zm-4.779-2.493v-.7c0-.381.082-.688.495-.767v.299c-.242.063-.219.294-.219.49h.219v.682z"/></g></g></g><text data-name="NYC'S" transform="translate(84.5 9)" font-size="8" font-family="SegoeUI, Segoe UI" letter-spacing="1em"><tspan x="0" y="0">NY</tspan><tspan y="0" letter-spacing=".34em">C&apos;S</tspan></text><text transform="translate(61.5 108)" font-size="8" font-family="SegoeUI, Segoe UI" letter-spacing="1em"><tspan x="0" y="0">CATERING</tspan></text></svg>